<?xml version="1.0" encoding="utf-8"?>
<!-- Generator: Adobe Illustrator 18.1.1, SVG Export Plug-In . SVG Version: 6.00 Build 0)  -->
<!DOCTYPE svg PUBLIC "-//W3C//DTD SVG 1.1//EN" "http://www.w3.org/Graphics/SVG/1.1/DTD/svg11.dtd">
<svg version="1.1" id="_x31_0" xmlns="http://www.w3.org/2000/svg" xmlns:xlink="http://www.w3.org/1999/xlink" x="0px" y="0px"
	 viewBox="0 0 512 512" style="enable-background:new 0 0 512 512;" xml:space="preserve">
<style type="text/css">
	.st0{fill:#ffad3b;}
</style>
<g>
	<path class="st0" d="M431.461,0H80.539C36.129,0,0,36.133,0,80.543v350.918C0,475.871,36.129,512,80.539,512h350.922
		C475.867,512,512,475.871,512,431.461V80.543C512,36.133,475.867,0,431.461,0z M57.527,80.543
		c0-12.657,10.356-23.012,23.012-23.012h350.922c12.656,0,23.008,10.355,23.008,23.012v350.918
		c0,12.656-10.352,23.012-23.008,23.012H80.539c-12.656,0-23.012-10.356-23.012-23.012V80.543z"/>
	<path class="st0" d="M256,318.89c34.73,0,62.886-28.156,62.886-62.89c0-34.73-28.156-62.886-62.886-62.886
		c-34.734,0-62.89,28.156-62.89,62.886C193.11,290.734,221.266,318.89,256,318.89z"/>
</g>
</svg>
