<?xml version="1.0" encoding="utf-8"?>
<!-- Generator: Adobe Illustrator 18.1.1, SVG Export Plug-In . SVG Version: 6.00 Build 0)  -->
<!DOCTYPE svg PUBLIC "-//W3C//DTD SVG 1.1//EN" "http://www.w3.org/Graphics/SVG/1.1/DTD/svg11.dtd">
<svg version="1.1" id="_x31_0" xmlns="http://www.w3.org/2000/svg" xmlns:xlink="http://www.w3.org/1999/xlink" x="0px" y="0px"
	 viewBox="0 0 512 512" style="enable-background:new 0 0 512 512;" xml:space="preserve">
<style type="text/css">
	.st0{fill:#ffad3b;}
</style>
<g>
	<path class="st0" d="M161.078,184.57c22.507,0,40.754-18.246,40.754-40.75c0-22.507-18.246-40.754-40.754-40.754
		c-22.504,0-40.75,18.246-40.75,40.754C120.328,166.324,138.574,184.57,161.078,184.57z"/>
	<circle class="st0" cx="350.922" cy="143.818" r="40.752"/>
	<path class="st0" d="M161.078,408.93c22.507,0,40.754-18.242,40.754-40.75c0-22.508-18.246-40.754-40.754-40.754
		c-22.504,0-40.75,18.246-40.75,40.754C120.328,390.687,138.574,408.93,161.078,408.93z"/>
	<path class="st0" d="M350.922,408.93c22.504,0,40.75-18.242,40.75-40.75c0-22.508-18.246-40.754-40.75-40.754
		c-22.507,0-40.754,18.246-40.754,40.754C310.168,390.687,328.414,408.93,350.922,408.93z"/>
	<path class="st0" d="M161.078,296.75c22.507,0,40.754-18.246,40.754-40.75c0-22.508-18.246-40.754-40.754-40.754
		c-22.504,0-40.75,18.246-40.75,40.754C120.328,278.504,138.574,296.75,161.078,296.75z"/>
	<circle class="st0" cx="350.922" cy="255.998" r="40.752"/>
	<path class="st0" d="M431.461,0H80.539C36.129,0,0,36.129,0,80.539v350.922C0,475.871,36.129,512,80.539,512h350.922
		c44.41,0,80.539-36.129,80.539-80.539V80.539C512,36.129,475.871,0,431.461,0z M57.527,80.539
		c0-12.656,10.356-23.012,23.012-23.012h350.922c12.656,0,23.012,10.356,23.012,23.012v350.922
		c0,12.656-10.356,23.012-23.012,23.012H80.539c-12.656,0-23.012-10.356-23.012-23.012V80.539z"/>
</g>
</svg>
