<?xml version="1.0" encoding="utf-8"?>
<!-- Generator: Adobe Illustrator 18.1.1, SVG Export Plug-In . SVG Version: 6.00 Build 0)  -->
<!DOCTYPE svg PUBLIC "-//W3C//DTD SVG 1.1//EN" "http://www.w3.org/Graphics/SVG/1.1/DTD/svg11.dtd">
<svg version="1.1" id="_x31_0" xmlns="http://www.w3.org/2000/svg" xmlns:xlink="http://www.w3.org/1999/xlink" x="0px" y="0px"
	 viewBox="0 0 512 512" style="enable-background:new 0 0 512 512;" xml:space="preserve">
<style type="text/css">
	.st0{fill:#ffad3b;}
</style>
<g>
	<circle class="st0" cx="155.324" cy="155.326" r="45.279"/>
	<path class="st0" d="M356.672,200.606c25.008,0,45.281-20.27,45.281-45.278s-20.273-45.281-45.281-45.281
		c-25.004,0-45.278,20.273-45.278,45.281S331.668,200.606,356.672,200.606z"/>
	<circle class="st0" cx="155.324" cy="356.674" r="45.279"/>
	<path class="st0" d="M356.672,401.953c25.008,0,45.281-20.27,45.281-45.277c0-25.008-20.273-45.282-45.281-45.282
		c-25.004,0-45.278,20.274-45.278,45.282C311.394,381.683,331.668,401.953,356.672,401.953z"/>
	<circle class="st0" cx="256" cy="261.754" r="45.281"/>
	<path class="st0" d="M431.461,0H80.539C36.129,0,0,36.133,0,80.539v350.922C0,475.871,36.129,512,80.539,512h350.922
		c44.41,0,80.539-36.129,80.539-80.539V80.539C512,36.133,475.871,0,431.461,0z M57.527,80.539
		c0-12.656,10.356-23.012,23.012-23.012h350.922c12.656,0,23.012,10.356,23.012,23.012v350.922
		c0,12.656-10.356,23.012-23.012,23.012H80.539c-12.656,0-23.012-10.356-23.012-23.012V80.539z"/>
</g>
</svg>
