<?xml version="1.0" encoding="utf-8"?>
<!-- Generator: Adobe Illustrator 18.1.1, SVG Export Plug-In . SVG Version: 6.00 Build 0)  -->
<!DOCTYPE svg PUBLIC "-//W3C//DTD SVG 1.1//EN" "http://www.w3.org/Graphics/SVG/1.1/DTD/svg11.dtd">
<svg version="1.1" id="_x31_0" xmlns="http://www.w3.org/2000/svg" xmlns:xlink="http://www.w3.org/1999/xlink" x="0px" y="0px"
	 viewBox="0 0 512 512" style="enable-background:new 0 0 512 512;" xml:space="preserve">
<style type="text/css">
	.st0{fill:#ffad3b;}
</style>
<g>
	<path class="st0" d="M431.461,0H80.539C36.129,0,0,36.129,0,80.539v350.922C0,475.867,36.129,512,80.539,512h350.922
		c44.41,0,80.539-36.133,80.539-80.539V80.539C512,36.129,475.871,0,431.461,0z M57.527,80.539
		c0-12.656,10.356-23.012,23.012-23.012h350.922c12.656,0,23.012,10.356,23.012,23.012v350.922
		c0,12.656-10.356,23.008-23.012,23.008H80.539c-12.656,0-23.012-10.352-23.012-23.008V80.539z"/>
	<circle class="st0" cx="171.145" cy="335.51" r="45.279"/>
	<path class="st0" d="M340.851,211.082c25.008,0,45.282-20.274,45.282-45.278c0-25.008-20.274-45.282-45.282-45.282
		c-25.007,0-45.277,20.274-45.277,45.282C295.574,190.809,315.844,211.082,340.851,211.082z"/>
</g>
</svg>
