<?xml version="1.0" encoding="utf-8"?>
<!-- Generator: Adobe Illustrator 18.1.1, SVG Export Plug-In . SVG Version: 6.00 Build 0)  -->
<!DOCTYPE svg PUBLIC "-//W3C//DTD SVG 1.1//EN" "http://www.w3.org/Graphics/SVG/1.1/DTD/svg11.dtd">
<svg version="1.1" id="_x31_0" xmlns="http://www.w3.org/2000/svg" xmlns:xlink="http://www.w3.org/1999/xlink" x="0px" y="0px"
	 viewBox="0 0 512 512" style="enable-background:new 0 0 512 512;" xml:space="preserve">
<style type="text/css">
	.st0{fill:#ffad3b;}
</style>
<g>
	<path class="st0" d="M161.078,206.359c25.007,0,45.277-20.274,45.277-45.281c0-25.004-20.27-45.278-45.277-45.278
		c-25.008,0-45.282,20.274-45.282,45.278C115.797,186.086,136.07,206.359,161.078,206.359z"/>
	<path class="st0" d="M350.918,206.359c25.008,0,45.282-20.274,45.282-45.281c0-25.004-20.274-45.278-45.282-45.278
		c-25.007,0-45.277,20.274-45.277,45.278C305.641,186.086,325.91,206.359,350.918,206.359z"/>
	<path class="st0" d="M161.078,396.199c25.007,0,45.277-20.27,45.277-45.278c0-25.007-20.27-45.281-45.277-45.281
		c-25.008,0-45.282,20.274-45.282,45.281C115.797,375.93,136.07,396.199,161.078,396.199z"/>
	<circle class="st0" cx="350.918" cy="350.92" r="45.279"/>
	<path class="st0" d="M431.457,0H80.539C36.129,0,0,36.129,0,80.539v350.922C0,475.871,36.129,512,80.539,512h350.918
		c44.41,0,80.543-36.129,80.543-80.539V80.539C512,36.129,475.867,0,431.457,0z M57.527,80.539
		c0-12.656,10.356-23.012,23.012-23.012h350.918c12.657,0,23.012,10.356,23.012,23.012v350.922
		c0,12.656-10.355,23.012-23.012,23.012H80.539c-12.656,0-23.012-10.356-23.012-23.012V80.539z"/>
</g>
</svg>
